<?xml version="1.0" encoding="UTF-8"?>
<svg width="945" height="945" font="10px sans-serif" style="height:auto;max-width:100%" version="1.1" viewBox="-472.5 -472.5 945 945" xmlns="http://www.w3.org/2000/svg">
 <path d="m0-442.5a442.5 442.5 0 0 1 372.32 203.36l-16.828 10.809a422.5 422.5 0 0 0-355.49-194.17z" fill="#DC143C">
  <title>71 N</title>
 </path>
 <path d="m383.22-221.25a442.5 442.5 0 0 1 10.04 424.12l-17.774-9.17a422.5 422.5 0 0 0-9.586-404.95z" fill="#FF4500">
  <title>71 O</title>
 </path>
 <path d="m383.22 221.25a442.5 442.5 0 0 1-362.28 220.75l-0.946-19.977a422.5 422.5 0 0 0 345.9-210.78z" fill="#50C878">
  <title>71 F</title>
 </path>
 <path d="M0,442.5A442.5,442.5,0,0,1,-372.318,239.136L-355.49,228.327A422.5,422.5,0,0,0,0,422.5Z" fill="#708090">
  <title>71 B</title>
 </path>
 <path d="m-383.22 221.25a442.5 442.5 0 0 1-10.04-424.12l17.774 9.17a422.5 422.5 0 0 0 9.586 404.95z" fill="#87CEEB">
  <title>71 U</title>
 </path>
 <path d="m-383.22-221.25a442.5 442.5 0 0 1 362.28-220.75l0.946 19.977a422.5 422.5 0 0 0-345.9 210.78z" fill="#673147">
  <title>71 M</title>
 </path>
 <g fill-opacity=".7" stroke="#fff">
  <path d="m299.71-297.79a422.5 422.5 0 0 1 52.525 64.477q-352.24 233.31-52.525-64.477z" fill="#DC143C">
   <title>14 N → N</title>
  </path>
  <path d="m2.5871e-14 -422.5a422.5 422.5 0 0 1 299.71 124.71q-299.71 297.79 75.768 491.49-375.48-193.7-375.48-616.2z" fill="#FF4500">
   <title>56 N → O
0 O → N</title>
  </path>
  <path d="m352.24-233.31a422.5 422.5 0 0 1 3.2506 4.9834q-355.49 228.33-710.98 456.65 355.49-228.33 707.73-461.64z" fill="#708090">
   <title>1 N → B
0 B → N</title>
  </path>
  <path d="m-365.9-211.25a422.5 422.5 0 0 1 263.62-198.68q102.27 409.93 457.76 181.61-355.49 228.33-721.39 17.077z" fill="#DC143C">
   <title>57 M → N
0 N → M</title>
  </path>
  <path d="m407.75 110.67a422.5 422.5 0 0 1-32.267 83.033q-375.48-193.7 32.267-83.033z" fill="#FF4500">
   <title>15 O → O</title>
  </path>
  <path d="m365.9-211.25a422.5 422.5 0 0 1 41.853 321.92q-407.75-110.67-387.76 311.36-19.993-422.03 345.9-633.28z" fill="#50C878">
   <title>56 O → F
0 F → O</title>
  </path>
  <path d="m55.538 418.83a422.5 422.5 0 0 1-35.546 3.1929q-19.993-422.03 35.546-3.1929z" fill="#50C878">
   <title>6 F → F</title>
  </path>
  <path d="m365.9 211.25a422.5 422.5 0 0 1-310.36 207.58q-55.538-418.83-371.54-138.39a422.5 422.5 0 0 1-32.914-42.194q348.92-238.25 714.81-26.998z" fill="#708090">
   <title>65 F → B
9 B → F</title>
  </path>
  <path d="m-348.92 238.25a422.5 422.5 0 0 1-6.571-9.9205q355.49-228.33 6.571 9.9205z" fill="#708090">
   <title>2 B → B</title>
  </path>
  <path d="m2.135e-13 422.5a422.5 422.5 0 0 1-273.51-100.48q273.51-322.02-107.27-505.07a422.5 422.5 0 0 1 5.3059-10.651q375.48 193.7 375.48 616.2z" fill="#87CEEB">
   <title>50 B → U
2 U → B</title>
  </path>
  <path d="m-273.51 322.02a422.5 422.5 0 0 1-42.491-41.578q316-280.44 290.07-702.14a422.5 422.5 0 0 1 5.941-0.32338q19.993 422.03-253.52 744.05z" fill="#673147">
   <title>10 B → M
1 M → B</title>
  </path>
  <path d="m-417.61-64.125a422.5 422.5 0 0 1 36.817-118.92q380.79 183.05-36.817 118.92z" fill="#87CEEB">
   <title>21 U → U</title>
  </path>
  <path d="m-365.9 211.25a422.5 422.5 0 0 1-51.71-275.37q417.61 64.125 397.61-357.9 19.993 422.03-345.9 633.28z" fill="#673147">
   <title>48 U → M
0 M → U</title>
  </path>
  <path d="m-102.27-409.93a422.5 422.5 0 0 1 76.339-11.768q25.934 421.7-76.339 11.768z" fill="#673147">
   <title>13 M → M</title>
  </path>
 </g>
</svg>
